<svg width="128" height="128" viewBox="0 0 128 128" fill="none" xmlns="http://www.w3.org/2000/svg">
<rect width="128" height="128" rx="64" fill="white"/>
<path d="M80.2857 66.7073L65.2667 52.0878C63.3968 50.2829 61.8135 48.2825 60.5167 46.0866C59.2198 43.8906 58.5714 41.4992 58.5714 38.9122C58.5714 35.6033 59.7325 32.7907 62.0548 30.4744C64.377 28.1581 67.1968 27 70.5143 27C72.4444 27 74.254 27.4061 75.9429 28.2183C77.6317 29.0305 79.0794 30.1285 80.2857 31.5122C81.4921 30.1285 82.9397 29.0305 84.6286 28.2183C86.3175 27.4061 88.127 27 90.0571 27C93.3746 27 96.1944 28.1581 98.5167 30.4744C100.839 32.7907 102 35.6033 102 38.9122C102 41.4992 101.367 43.8906 100.1 46.0866C98.8333 48.2825 97.2651 50.2829 95.3952 52.0878L80.2857 66.7073ZM80.2857 56.6L90.1476 46.9439C91.2937 45.8008 92.3492 44.5825 93.3143 43.289C94.2794 41.9955 94.7619 40.5366 94.7619 38.9122C94.7619 37.5886 94.3095 36.4756 93.4048 35.5732C92.5 34.6707 91.3841 34.2195 90.0571 34.2195C89.2127 34.2195 88.4135 34.385 87.6595 34.7159C86.9056 35.0467 86.2571 35.5431 85.7143 36.2049L80.2857 42.7024L74.8571 36.2049C74.3143 35.5431 73.6659 35.0467 72.9119 34.7159C72.1579 34.385 71.3587 34.2195 70.5143 34.2195C69.1873 34.2195 68.0714 34.6707 67.1667 35.5732C66.2619 36.4756 65.8095 37.5886 65.8095 38.9122C65.8095 40.5366 66.2921 41.9955 67.2571 43.289C68.2222 44.5825 69.2778 45.8008 70.4238 46.9439L80.2857 56.6ZM47.7143 86.561L72.8667 93.4195L94.4 86.7415C94.0984 86.2 93.6611 85.7337 93.0881 85.3427C92.5151 84.9516 91.8667 84.7561 91.1429 84.7561H72.8667C71.2381 84.7561 69.9413 84.6959 68.9762 84.5756C68.0111 84.4553 67.0159 84.2146 65.9905 83.8537L57.5762 81.0561L59.5667 74.0171L66.8952 76.4537C67.9206 76.7545 69.127 76.9951 70.5143 77.1756C71.9016 77.3561 73.9524 77.4764 76.6667 77.5366C76.6667 76.8748 76.4706 76.2431 76.0786 75.6415C75.6865 75.0398 75.219 74.6488 74.6762 74.4683L53.5048 66.7073H47.7143V86.561ZM26 99.1951V59.4878H53.5048C53.927 59.4878 54.3492 59.5329 54.7714 59.6232C55.1937 59.7134 55.5857 59.8187 55.9476 59.939L77.2095 67.7902C79.2 68.5122 80.8135 69.7756 82.05 71.5805C83.2865 73.3854 83.9048 75.3707 83.9048 77.5366H91.1429C94.1587 77.5366 96.7222 78.5293 98.8333 80.5146C100.944 82.5 102 85.1171 102 88.3659V91.9756L73.0476 101L47.7143 93.961V99.1951H26ZM33.2381 91.9756H40.4762V66.7073H33.2381V91.9756Z" fill="black"/>
</svg>
